<svg width="160" height="72" viewBox="0 0 160 72" fill="none" xmlns="http://www.w3.org/2000/svg">
<rect x="12" y="16" width="68" height="44" rx="10" fill="#F6F8FA"/>
<rect x="12.5" y="16.5" width="67" height="43" rx="9.5" stroke="black" stroke-opacity="0.08"/>
<rect x="0" y="12" width="76" height="48" rx="10" fill="white"/>
<rect x="0.5" y="12.5" width="75" height="47" rx="9.5" stroke="black" stroke-opacity="0.12"/>
<rect x="8" y="20" width="38" height="8" rx="4" fill="#03A9F4" fill-opacity="0.18"/>
<path d="M8 38H24" stroke="black" stroke-opacity="0.18" stroke-width="6" stroke-linecap="round"/>
<circle cx="34" cy="38" r="4" fill="#03A9F4"/>
<path d="M42 38H60" stroke="black" stroke-opacity="0.18" stroke-width="6" stroke-linecap="round"/>
<path d="M8 48H32" stroke="black" stroke-opacity="0.12" stroke-width="6" stroke-linecap="round"/>
<rect x="100" y="12" width="52" height="48" rx="10" fill="white"/>
<rect x="100.5" y="12.5" width="51" height="47" rx="9.5" stroke="black" stroke-opacity="0.12"/>
<path d="M116 12H136L144 20V48C144 52.418 140.418 56 136 56H116C111.582 56 108 52.418 108 48V20C108 15.582 111.582 12 116 12Z" fill="#03A9F4" fill-opacity="0.12"/>
<path d="M136 12V20H144" fill="#03A9F4" fill-opacity="0.24"/>
<path d="M136 12V20H144" stroke="#03A9F4" stroke-opacity="0.4" stroke-linejoin="round"/>
<path d="M118 28H134" stroke="black" stroke-opacity="0.18" stroke-width="6" stroke-linecap="round"/>
<path d="M118 40H132" stroke="black" stroke-opacity="0.12" stroke-width="6" stroke-linecap="round"/>
<circle cx="138" cy="40" r="4" fill="#03A9F4"/>
</svg>
